<svg t="1736448899755" class="icon" viewBox="0 0 1024 1024" version="1.1" xmlns="http://www.w3.org/2000/svg" p-id="2504" width="200" height="200"><path d="M459.107438 2.961983c-15.797245 5.500826-26.939945 16.92562-32.440771 33.569146-1.974656 6.065014-2.397796 12.412121-2.397796 33.4281 0 20.310744-0.42314 26.234711-1.974656 27.504132-1.128375 0.846281-1.974656 1.269421-1.974656 0.846281 0-0.42314-3.244077 0.141047-7.334435 1.269421-3.949311 1.269421-8.46281 2.397796-10.014325 2.67989-1.410468 0.42314-3.949311 0.987328-5.641873 1.551515-1.692562 0.705234-3.667218 1.128375-4.513499 1.269422-0.705234 0.141047-2.397796 0.564187-3.526171 0.987328-1.128375 0.42314-7.475482 2.67989-14.104683 4.795592s-12.553168 4.372452-13.258402 5.077686c-0.846281 0.564187-2.256749 1.128375-3.385124 1.128375-2.115702 0-9.591185 3.10303-16.079339 6.488154-2.256749 1.269421-3.949311 1.692562-3.949311 0.987328 0-0.564187-0.564187-0.564187-1.128375 0.282093-0.846281 1.269421-14.527824 8.180716-15.374105 7.898623-0.282094 0-6.488154 3.385124-13.963636 7.616529-7.475482 4.231405-14.104683 7.757576-14.809917 7.757576s-1.269421 0.42314-1.269422 0.987327c0 1.269421-8.039669 6.065014-10.014325 6.065014-0.705234 0-9.732231-8.46281-20.02865-18.759228-18.618182-18.336088-22.990634-21.439118-37.236364-26.093664-10.719559-3.385124-31.453444 0.564187-41.185675 8.039669-7.898623 5.923967-62.201653 60.932231-65.727823 66.433058-8.46281 13.540496-10.578512 34.697521-4.513499 45.84022 0.846281 1.551515 1.692562 3.526171 1.833609 4.513499 0.564187 3.244077 8.46281 12.412121 24.965289 28.9146 9.026997 9.026997 16.502479 16.92562 16.502479 17.348761 0 0.564187-1.833609 3.526171-4.090358 6.770248-2.115702 3.244077-4.372452 7.334435-4.936639 9.026997-0.564187 1.833609-1.551515 3.244077-2.115702 3.244077-0.705234 0-1.974656 2.115702-3.103031 4.513499-0.987328 2.538843-2.256749 4.936639-2.679889 5.359779-0.705234 0.564187-11.56584 22.144353-11.988981 23.977962-0.141047 0.42314-1.269421 3.244077-2.67989 6.347107-5.78292 12.976309-14.527824 35.966942-15.656198 40.903581-0.141047 0.705234-0.705234 2.397796-1.128375 3.526171-1.269421 2.820937-6.629201 23.13168-8.321763 31.312397-0.846281 3.808264-1.833609 6.770248-2.397796 6.911295-0.42314 0-12.835262 0.282094-27.645179 0.42314-14.809917 0.141047-29.337741 1.128375-32.581818 1.974656-16.92562 4.936639-32.440771 22.567493-35.402755 40.480441-0.705234 3.808264-1.128375 26.093664-0.987328 49.366391 0.141047 39.775207 0.42314 42.73719 3.244077 50.353719 5.78292 14.950964 15.938292 24.965289 31.312397 31.030303 6.770248 2.538843 10.860606 2.961983 35.120661 3.10303l27.504132 0.141047 1.833609 7.052342c0.987328 3.808264 2.115702 8.180716 2.397796 9.591184 0.282094 1.410468 0.987328 3.808264 1.410468 5.218733 0.42314 1.410468 0.987328 3.808264 1.269422 5.218733 2.115702 10.578512 16.361433 48.661157 18.053994 48.096969 0.705234-0.282094 26.234711-25.38843 56.700827-55.854545l55.431405-55.431405-1.128375-6.206061c-3.385124-17.771901-4.513499-59.803857-2.115702-77.575757 0.705234-4.654545 1.269421-10.014325 1.410468-11.988981 1.410468-13.963636 12.130028-51.341047 19.464463-67.702479 9.873278-22.003306 22.285399-43.724518 31.312397-55.290358 1.692562-1.974656 4.513499-5.78292 6.488154-8.321763 11.988981-15.938292 35.684848-39.069972 53.597796-52.469422 16.361433-12.271074 42.878237-26.939945 62.060606-34.415427 16.92562-6.629201 19.887603-7.757576 21.862259-8.180716 0.846281-0.282094 4.936639-1.410468 9.168044-2.67989 4.231405-1.128375 10.296419-2.538843 13.399449-3.10303 3.10303-0.42314 6.206061-1.128375 6.770248-1.551515 0.564187-0.282094 3.10303-0.987328 5.641873-1.269422 2.538843-0.42314 6.065014-0.987328 8.03967-1.269421 15.797245-2.538843 51.482094-3.385124 68.407713-1.551516 42.173003 4.513499 77.152617 15.797245 114.247934 36.672177 5.500826 3.10303 10.155372 6.065014 10.578513 6.488154 0.42314 0.42314 3.667218 2.67989 7.334435 4.936639 3.808264 2.397796 6.770248 4.654545 6.770248 5.218733 0 0.705234 0.705234 1.128375 1.551515 1.128375 1.551515 0 11.847934 8.321763 23.695868 19.041322 5.78292 5.218733 8.180716 7.616529 19.887603 20.45179 7.052342 7.616529 20.02865 25.106336 27.363085 36.390083 12.694215 20.02865 30.466116 60.509091 33.992287 77.857851 0.282094 1.128375 1.128375 4.654545 1.833609 7.757576 0.846281 3.10303 1.833609 7.475482 2.256749 9.873278 0.42314 2.256749 0.987328 5.78292 1.410468 7.757576 0.987328 5.077686 2.397796 15.374105 2.961984 21.862259 0.846281 8.603857 0.846281 44.429752 0 50.77686-3.526171 28.350413-4.090358 31.17135-11.283747 57.123967-4.372452 16.079339-16.502479 43.724518-25.81157 59.239669-1.692562 2.67989-4.090358 6.770248-5.35978 9.168044-1.269421 2.256749-2.820937 4.513499-3.244077 4.936639-0.42314 0.42314-2.67989 3.385124-4.795592 6.770248-4.513499 7.052342-24.260055 30.607163-30.325069 36.53113-13.399449 12.694215-25.81157 23.272727-34.133333 29.055647-21.721212 15.092011-38.364738 24.401102-57.829201 32.440771-11.1427 4.654545-31.453444 11.56584-37.518458 12.976309-32.158678 7.052342-43.442424 8.46281-70.382369 8.321763-23.977961 0-41.890909-1.410468-50.071625-4.090358-1.974656-0.564187-15.656198 12.271074-58.393389 55.008264-30.748209 30.748209-55.854545 56.418733-55.854545 57.123967 0 0.564187 3.385124 2.256749 7.475482 3.667218 3.949311 1.269421 8.039669 2.820937 8.744904 3.385124 0.846281 0.564187 8.039669 3.10303 16.220385 5.500826 8.180716 2.538843 16.361433 5.218733 18.336088 5.78292 1.974656 0.705234 7.052342 1.974656 11.283747 2.820937 14.950964 3.244077 13.681543 0.141047 13.82259 31.453444 0 17.207713 0.705234 28.632507 1.692562 30.466115 0.846281 1.692562 1.128375 2.961983 0.705234 2.961984-0.42314 0 0.846281 3.10303 2.820936 6.911294 3.808264 7.475482 14.527824 19.887603 17.348761 19.887604 0.987328 0 1.692562 0.564187 1.692562 1.269421s2.397796 2.115702 5.359779 3.103031c2.820937 0.846281 6.065014 2.397796 7.193389 3.244077 1.410468 1.128375 16.502479 1.551515 49.366391 1.551515 43.301377 0 48.09697-0.282094 55.572452-2.820937 4.372452-1.410468 8.039669-3.244077 8.039669-3.808264 0-0.564187 0.846281-1.128375 1.974656-1.128375 2.820937 0 15.797245-13.540496 18.477135-19.323416 5.077686-10.578512 5.923967-16.784573 5.923967-43.301377 0.141047-14.527824 0.282094-26.657851 0.705234-26.939945 0.282094-0.282094 2.115702-0.846281 3.949311-1.269422 19.746556-4.090358 56.136639-15.938292 75.177962-24.542148 5.218733-2.397796 9.450138-3.949311 9.450137-3.385124 0 0.564187 0.564187 0.282094 1.128375-0.423141 0.564187-0.846281 6.065014-3.949311 12.271074-6.911295 6.206061-3.10303 11.56584-5.923967 11.988981-6.347107 0.42314-0.564187 2.397796-1.692562 4.513499-2.538843 2.115702-0.987328 6.488154-3.526171 9.873278-5.641873 13.82259-9.026997 11.706887-9.732231 32.158678 10.719559 19.464463 19.60551 25.952617 24.260055 38.082644 27.222038 12.976309 3.244077 24.260055 1.692562 37.377411-5.077686 5.641873-2.961983 62.060606-58.111295 68.689807-67.138292 10.860606-15.092011 11.988981-36.813223 2.67989-54.444077-1.692562-3.244077-11.706887-14.527824-22.144353-25.106336l-19.182369-19.323416 2.67989-3.667217c3.10303-4.513499 6.770248-10.578512 10.719559-18.053995 1.692562-3.10303 3.385124-5.923967 3.949311-6.347107 0.846281-0.846281 14.386777-28.49146 14.527824-29.760882 0.141047-0.42314 1.692562-4.231405 3.526171-8.46281s3.808264-8.88595 4.513498-10.437465c2.397796-5.923967 10.014325-28.632507 11.988981-35.966942 2.67989-9.732231 6.347107-23.977961 6.770248-26.798899 0.282094-1.833609 4.513499-2.115702 26.375758-2.256749 28.350413-0.282094 32.440771-0.705234 41.749862-4.936639 6.488154-2.961983 9.873278-5.35978 15.515151-11.1427 3.385124-3.385124 10.578512-14.668871 11.283747-17.630854 0.141047-0.705234 0.987328-4.372452 1.833609-7.898622 1.692562-6.911295 1.269421-91.116253-0.423141-97.040221-4.654545-16.502479-21.157025-32.581818-36.95427-36.249035-2.256749-0.42314-16.220386-0.987328-30.889256-1.128375-29.760882-0.42314-28.06832 0.282094-30.466116-11.706887-0.705234-3.667218-2.67989-11.283747-4.231405-16.643526-1.692562-5.500826-3.10303-10.860606-3.52617-11.988981-0.282094-1.128375-0.564187-2.256749-0.705235-2.538843-0.282094-0.141047-0.42314-0.705234-0.705234-1.410468-0.141047-0.564187-0.705234-1.974656-1.128374-3.103031-0.564187-1.128375-1.974656-5.35978-3.244078-9.168044-1.269421-3.949311-2.961983-8.603857-3.808264-10.578512-0.705234-1.974656-1.551515-4.231405-1.692562-5.077686-0.987328-4.090358-21.015978-43.865565-28.49146-56.418733l-8.46281-14.386777 19.182369-19.464463c12.835262-12.976309 20.310744-21.862259 22.426446-26.375757 9.591185-20.310744 6.206061-42.31405-8.88595-58.534435-16.079339-17.34876-56.700826-56.841873-61.355372-59.803857-13.399449-8.180716-33.004959-10.296419-45.84022-4.795592-3.10303 1.269421-5.923967 2.397796-6.347108 2.538843-1.833609 0.141047-12.130028 9.450138-26.939945 24.260055-9.026997 9.026997-17.489807 16.361433-18.618181 16.361432-1.269421 0-3.526171-1.410468-5.218733-3.10303-1.551515-1.692562-2.820937-2.538843-2.820937-1.692562 0 0.705234-0.564187 0.564187-1.128374-0.282094-1.269421-1.833609-26.093664-15.656198-39.069973-21.721212-10.296419-4.795592-37.095317-15.656198-39.493113-16.079339-0.705234-0.141047-1.974656-0.564187-2.820937-0.987328-0.705234-0.564187-5.218733-1.974656-9.873278-3.385124s-12.271074-3.667218-16.92562-5.077686c-4.654545-1.410468-11.988981-3.244077-16.220385-4.090358l-7.757576-1.692562V67.843526l-0.141047-29.055647-4.090358-8.46281C591.832507 21.862259 578.292011 7.052342 574.624793 7.052342c-1.128375 0-1.974656-0.564187-1.974655-1.128375 0-0.705234-3.667218-2.256749-8.03967-3.526171C557.84022 0.564187 548.390083 0.141047 512 0.141047c-41.326722-0.141047-44.993939 0.141047-52.892562 2.820936z" fill="#18A058" p-id="2505"></path><path d="M504.524518 299.865565c-0.141047 0.141047-6.206061 0.564187-13.258402 1.128374-7.193388 0.564187-13.82259 1.128375-14.809918 1.551516-0.987328 0.282094-3.385124 0.846281-5.359779 1.269421-14.950964 2.67989-39.916253 11.1427-52.892562 17.771901-9.168044 4.795592-24.965289 14.104683-26.093664 15.374105-0.42314 0.564187-3.244077 2.538843-6.347108 4.654545-3.10303 2.115702-7.898623 5.923967-10.719559 8.46281-2.820937 2.538843-6.629201 6.065014-8.46281 7.757576-10.437466 9.309091-25.670523 27.786226-33.428099 40.621487-7.898623 12.694215-18.336088 35.120661-21.439118 45.840221-1.833609 5.78292-3.808264 11.283747-4.372452 12.130027-0.705234 0.846281-0.987328 1.833609-0.564187 2.25675 0.42314 0.282094 0 2.820937-0.705235 5.500826-0.846281 2.67989-1.833609 7.334435-2.256749 10.437466-0.42314 3.10303-1.128375 7.193388-1.410468 9.168044-0.42314 1.974656-0.846281 12.412121-1.128375 23.272727-0.42314 17.34876 0.987328 34.556474 3.949311 48.661157 0.42314 1.974656 1.128375 4.936639 1.410469 6.770248 0.42314 1.692562 2.115702 7.616529 3.949311 12.976308l3.10303 10.014325-146.265564 146.265565c-80.396694 80.396694-148.522314 149.368595-151.202204 153.17686-2.67989 3.808264-4.936639 7.757576-4.936639 8.88595 0 0.987328-0.42314 1.833609-1.128375 1.833609-1.128375 0-4.372452 6.770248-5.218733 11.1427-0.282094 1.692562-0.846281 3.526171-1.269421 4.090358-2.961983 4.795592-4.090358 29.760882-1.974656 41.044628 1.269421 7.193388 7.757576 25.38843 9.450138 26.939945 0.42314 0.42314 1.692562 2.397796 2.67989 4.372452 2.397796 4.654545 16.361433 19.323416 22.849586 24.119008 15.515152 11.283747 34.556474 16.92562 54.726171 16.079339 15.515152-0.705234 24.824242-3.10303 39.069973-10.437466 9.168044-4.654545 21.298072-16.361433 159.100826-154.02314l149.227548-149.227549 6.911295 2.67989c3.808264 1.410468 8.321763 2.820937 10.155372 3.244077 1.833609 0.42314 4.513499 0.987328 6.065014 1.410469 20.874931 4.795592 26.657851 5.500826 49.366391 5.500826 21.157025 0.141047 31.876584-0.987328 48.661157-4.795592 11.56584-2.67989 32.863912-9.873278 38.787879-12.976309 1.551515-0.846281 3.10303-1.692562 3.52617-1.692562 3.244077-0.564187 33.85124-18.759229 36.672177-21.862259 0.42314-0.42314 3.526171-2.961983 7.052341-5.78292 18.900275-15.233058 37.37741-36.672176 49.084298-56.98292 6.911295-12.130028 17.066667-35.261708 19.323416-44.429752 0.141047-0.42314 0.564187-1.692562 0.987328-2.820937 1.410468-3.385124 5.218733-20.592837 6.20606-27.504132 1.551515-9.873278 1.974656-16.361433 2.115703-30.325069 0-14.24573-1.128375-33.428099-2.25675-35.261708-0.282094-0.42314-0.846281-3.667218-1.410468-7.052341-3.10303-21.298072-22.567493-32.863912-40.480441-24.119009-3.949311 1.974656-18.759229 15.656198-42.73719 39.775207-20.169697 20.310744-39.775207 39.352066-43.583471 42.455096-18.477135 14.668871-43.442424 19.041322-66.150964 11.424794-5.500826-1.974656-10.437466-3.949311-10.860606-4.372452-0.42314-0.564187-2.397796-1.833609-4.513499-2.961983-5.500826-2.820937-15.374105-12.553168-20.310743-20.028651-14.950964-22.144353-16.220386-47.955923-3.667218-72.357024 4.372452-8.321763 11.001653-15.656198 46.263361-51.058953 22.567493-22.70854 42.031956-43.160331 43.301377-45.41708 1.128375-2.256749 1.974656-8.039669 2.115703-12.694215 0-8.88595-3.385124-15.938292-10.296419-21.721212-4.795592-4.090358-24.260055-8.744904-39.493113-9.591185-9.732231-0.564187-24.683196-0.846281-25.106336-0.564187z" fill="#ffffff" p-id="2506"></path></svg>